<svg xmlns="http://www.w3.org/2000/svg" width="400" height="340" viewBox="0 0 400 340"><defs>
  <filter id="shadow" x="-50%" y="-50%" width="200%" height="220%"><feDropShadow dx="0" dy="12" stdDeviation="9" flood-color="#35405c" flood-opacity=".19"/></filter>
  <linearGradient id="white" x1="0" y1="0" x2=".8" y2="1"><stop stop-color="#fff"/><stop offset="1" stop-color="#cdd3dc"/></linearGradient>
  <linearGradient id="blue" x1="0" y1="0" x2="1" y2="1"><stop stop-color="#8499c5"/><stop offset="1" stop-color="#4d638f"/></linearGradient>
  <linearGradient id="lavender" x1="0" y1="0" x2="1" y2="1"><stop stop-color="#afaabe"/><stop offset="1" stop-color="#747184"/></linearGradient>
  <linearGradient id="green" x1="0" y1="0" x2="1" y2="1"><stop stop-color="#a8b6a1"/><stop offset="1" stop-color="#647b65"/></linearGradient>
  <linearGradient id="clay" x1="0" y1="0" x2="1" y2="1"><stop stop-color="#d4aa93"/><stop offset="1" stop-color="#af7961"/></linearGradient>
</defs><g filter="url(#shadow)" transform="rotate(-9 200 170)"><rect x="33" y="110" width="328" height="142" rx="12" fill="#a4adbd"/><rect x="33" y="102" width="328" height="142" rx="12" fill="url(#white)"/><rect x="40" y="112" width="313" height="125" rx="6" fill="#c5cbd2"/><g><rect x="47" y="121" width="20" height="22" rx="3" fill="#a2a9b5"/><rect x="47" y="119" width="20" height="21" rx="3" fill="#8393b1"/><path d="M53 125h4" stroke="#d8e2f1" stroke-width="1.4"/></g><g><rect x="70" y="121" width="20" height="22" rx="3" fill="#a2a9b5"/><rect x="70" y="119" width="20" height="21" rx="3" fill="#f2f2ed"/><path d="M76 125h4" stroke="#aeb2b9" stroke-width="1.4"/></g><g><rect x="93" y="121" width="20" height="22" rx="3" fill="#a2a9b5"/><rect x="93" y="119" width="20" height="21" rx="3" fill="#f2f2ed"/><path d="M99 125h4" stroke="#aeb2b9" stroke-width="1.4"/></g><g><rect x="116" y="121" width="20" height="22" rx="3" fill="#a2a9b5"/><rect x="116" y="119" width="20" height="21" rx="3" fill="#f2f2ed"/><path d="M122 125h4" stroke="#aeb2b9" stroke-width="1.4"/></g><g><rect x="139" y="121" width="20" height="22" rx="3" fill="#a2a9b5"/><rect x="139" y="119" width="20" height="21" rx="3" fill="#f2f2ed"/><path d="M145 125h4" stroke="#aeb2b9" stroke-width="1.4"/></g><g><rect x="162" y="121" width="20" height="22" rx="3" fill="#a2a9b5"/><rect x="162" y="119" width="20" height="21" rx="3" fill="#f2f2ed"/><path d="M168 125h4" stroke="#aeb2b9" stroke-width="1.4"/></g><g><rect x="185" y="121" width="20" height="22" rx="3" fill="#a2a9b5"/><rect x="185" y="119" width="20" height="21" rx="3" fill="#f2f2ed"/><path d="M191 125h4" stroke="#aeb2b9" stroke-width="1.4"/></g><g><rect x="208" y="121" width="20" height="22" rx="3" fill="#a2a9b5"/><rect x="208" y="119" width="20" height="21" rx="3" fill="#f2f2ed"/><path d="M214 125h4" stroke="#aeb2b9" stroke-width="1.4"/></g><g><rect x="231" y="121" width="20" height="22" rx="3" fill="#a2a9b5"/><rect x="231" y="119" width="20" height="21" rx="3" fill="#f2f2ed"/><path d="M237 125h4" stroke="#aeb2b9" stroke-width="1.4"/></g><g><rect x="254" y="121" width="20" height="22" rx="3" fill="#a2a9b5"/><rect x="254" y="119" width="20" height="21" rx="3" fill="#f2f2ed"/><path d="M260 125h4" stroke="#aeb2b9" stroke-width="1.4"/></g><g><rect x="277" y="121" width="20" height="22" rx="3" fill="#a2a9b5"/><rect x="277" y="119" width="20" height="21" rx="3" fill="#f2f2ed"/><path d="M283 125h4" stroke="#aeb2b9" stroke-width="1.4"/></g><g><rect x="300" y="121" width="20" height="22" rx="3" fill="#a2a9b5"/><rect x="300" y="119" width="20" height="21" rx="3" fill="#8393b1"/><path d="M306 125h4" stroke="#d8e2f1" stroke-width="1.4"/></g><g><rect x="323" y="121" width="20" height="22" rx="3" fill="#a2a9b5"/><rect x="323" y="119" width="20" height="21" rx="3" fill="#8393b1"/><path d="M329 125h4" stroke="#d8e2f1" stroke-width="1.4"/></g><g><rect x="47" y="146" width="20" height="22" rx="3" fill="#a2a9b5"/><rect x="47" y="144" width="20" height="21" rx="3" fill="#f2f2ed"/><path d="M53 150h4" stroke="#aeb2b9" stroke-width="1.4"/></g><g><rect x="70" y="146" width="20" height="22" rx="3" fill="#a2a9b5"/><rect x="70" y="144" width="20" height="21" rx="3" fill="#f2f2ed"/><path d="M76 150h4" stroke="#aeb2b9" stroke-width="1.4"/></g><g><rect x="93" y="146" width="20" height="22" rx="3" fill="#a2a9b5"/><rect x="93" y="144" width="20" height="21" rx="3" fill="#f2f2ed"/><path d="M99 150h4" stroke="#aeb2b9" stroke-width="1.4"/></g><g><rect x="116" y="146" width="20" height="22" rx="3" fill="#a2a9b5"/><rect x="116" y="144" width="20" height="21" rx="3" fill="#f2f2ed"/><path d="M122 150h4" stroke="#aeb2b9" stroke-width="1.4"/></g><g><rect x="139" y="146" width="20" height="22" rx="3" fill="#a2a9b5"/><rect x="139" y="144" width="20" height="21" rx="3" fill="#f2f2ed"/><path d="M145 150h4" stroke="#aeb2b9" stroke-width="1.4"/></g><g><rect x="162" y="146" width="20" height="22" rx="3" fill="#a2a9b5"/><rect x="162" y="144" width="20" height="21" rx="3" fill="#f2f2ed"/><path d="M168 150h4" stroke="#aeb2b9" stroke-width="1.4"/></g><g><rect x="185" y="146" width="20" height="22" rx="3" fill="#a2a9b5"/><rect x="185" y="144" width="20" height="21" rx="3" fill="#f2f2ed"/><path d="M191 150h4" stroke="#aeb2b9" stroke-width="1.4"/></g><g><rect x="208" y="146" width="20" height="22" rx="3" fill="#a2a9b5"/><rect x="208" y="144" width="20" height="21" rx="3" fill="#f2f2ed"/><path d="M214 150h4" stroke="#aeb2b9" stroke-width="1.4"/></g><g><rect x="231" y="146" width="20" height="22" rx="3" fill="#a2a9b5"/><rect x="231" y="144" width="20" height="21" rx="3" fill="#f2f2ed"/><path d="M237 150h4" stroke="#aeb2b9" stroke-width="1.4"/></g><g><rect x="254" y="146" width="20" height="22" rx="3" fill="#a2a9b5"/><rect x="254" y="144" width="20" height="21" rx="3" fill="#f2f2ed"/><path d="M260 150h4" stroke="#aeb2b9" stroke-width="1.4"/></g><g><rect x="277" y="146" width="20" height="22" rx="3" fill="#a2a9b5"/><rect x="277" y="144" width="20" height="21" rx="3" fill="#f2f2ed"/><path d="M283 150h4" stroke="#aeb2b9" stroke-width="1.4"/></g><g><rect x="300" y="146" width="20" height="22" rx="3" fill="#a2a9b5"/><rect x="300" y="144" width="20" height="21" rx="3" fill="#8393b1"/><path d="M306 150h4" stroke="#d8e2f1" stroke-width="1.4"/></g><g><rect x="323" y="146" width="20" height="22" rx="3" fill="#a2a9b5"/><rect x="323" y="144" width="20" height="21" rx="3" fill="#8393b1"/><path d="M329 150h4" stroke="#d8e2f1" stroke-width="1.4"/></g><g><rect x="47" y="171" width="20" height="22" rx="3" fill="#a2a9b5"/><rect x="47" y="169" width="20" height="21" rx="3" fill="#f2f2ed"/><path d="M53 175h4" stroke="#aeb2b9" stroke-width="1.4"/></g><g><rect x="70" y="171" width="20" height="22" rx="3" fill="#a2a9b5"/><rect x="70" y="169" width="20" height="21" rx="3" fill="#f2f2ed"/><path d="M76 175h4" stroke="#aeb2b9" stroke-width="1.4"/></g><g><rect x="93" y="171" width="20" height="22" rx="3" fill="#a2a9b5"/><rect x="93" y="169" width="20" height="21" rx="3" fill="#f2f2ed"/><path d="M99 175h4" stroke="#aeb2b9" stroke-width="1.4"/></g><g><rect x="116" y="171" width="20" height="22" rx="3" fill="#a2a9b5"/><rect x="116" y="169" width="20" height="21" rx="3" fill="#f2f2ed"/><path d="M122 175h4" stroke="#aeb2b9" stroke-width="1.4"/></g><g><rect x="139" y="171" width="20" height="22" rx="3" fill="#a2a9b5"/><rect x="139" y="169" width="20" height="21" rx="3" fill="#f2f2ed"/><path d="M145 175h4" stroke="#aeb2b9" stroke-width="1.4"/></g><g><rect x="162" y="171" width="20" height="22" rx="3" fill="#a2a9b5"/><rect x="162" y="169" width="20" height="21" rx="3" fill="#f2f2ed"/><path d="M168 175h4" stroke="#aeb2b9" stroke-width="1.4"/></g><g><rect x="185" y="171" width="20" height="22" rx="3" fill="#a2a9b5"/><rect x="185" y="169" width="20" height="21" rx="3" fill="#f2f2ed"/><path d="M191 175h4" stroke="#aeb2b9" stroke-width="1.4"/></g><g><rect x="208" y="171" width="20" height="22" rx="3" fill="#a2a9b5"/><rect x="208" y="169" width="20" height="21" rx="3" fill="#f2f2ed"/><path d="M214 175h4" stroke="#aeb2b9" stroke-width="1.4"/></g><g><rect x="231" y="171" width="20" height="22" rx="3" fill="#a2a9b5"/><rect x="231" y="169" width="20" height="21" rx="3" fill="#f2f2ed"/><path d="M237 175h4" stroke="#aeb2b9" stroke-width="1.4"/></g><g><rect x="254" y="171" width="20" height="22" rx="3" fill="#a2a9b5"/><rect x="254" y="169" width="20" height="21" rx="3" fill="#f2f2ed"/><path d="M260 175h4" stroke="#aeb2b9" stroke-width="1.4"/></g><g><rect x="277" y="171" width="20" height="22" rx="3" fill="#a2a9b5"/><rect x="277" y="169" width="20" height="21" rx="3" fill="#f2f2ed"/><path d="M283 175h4" stroke="#aeb2b9" stroke-width="1.4"/></g><g><rect x="300" y="171" width="20" height="22" rx="3" fill="#a2a9b5"/><rect x="300" y="169" width="20" height="21" rx="3" fill="#8393b1"/><path d="M306 175h4" stroke="#d8e2f1" stroke-width="1.4"/></g><g><rect x="323" y="171" width="20" height="22" rx="3" fill="#a2a9b5"/><rect x="323" y="169" width="20" height="21" rx="3" fill="#8393b1"/><path d="M329 175h4" stroke="#d8e2f1" stroke-width="1.4"/></g><g><rect x="47" y="196" width="20" height="22" rx="3" fill="#a2a9b5"/><rect x="47" y="194" width="20" height="21" rx="3" fill="#f2f2ed"/><path d="M53 200h4" stroke="#aeb2b9" stroke-width="1.4"/></g><g><rect x="70" y="196" width="20" height="22" rx="3" fill="#a2a9b5"/><rect x="70" y="194" width="20" height="21" rx="3" fill="#f2f2ed"/><path d="M76 200h4" stroke="#aeb2b9" stroke-width="1.4"/></g><g><rect x="93" y="196" width="20" height="22" rx="3" fill="#a2a9b5"/><rect x="93" y="194" width="20" height="21" rx="3" fill="#f2f2ed"/><path d="M99 200h4" stroke="#aeb2b9" stroke-width="1.4"/></g><g><rect x="116" y="196" width="20" height="22" rx="3" fill="#a2a9b5"/><rect x="116" y="194" width="20" height="21" rx="3" fill="#f2f2ed"/><path d="M122 200h4" stroke="#aeb2b9" stroke-width="1.4"/></g><g><rect x="139" y="196" width="20" height="22" rx="3" fill="#a2a9b5"/><rect x="139" y="194" width="20" height="21" rx="3" fill="#f2f2ed"/><path d="M145 200h4" stroke="#aeb2b9" stroke-width="1.4"/></g><g><rect x="162" y="196" width="20" height="22" rx="3" fill="#a2a9b5"/><rect x="162" y="194" width="20" height="21" rx="3" fill="#f2f2ed"/><path d="M168 200h4" stroke="#aeb2b9" stroke-width="1.4"/></g><g><rect x="185" y="196" width="20" height="22" rx="3" fill="#a2a9b5"/><rect x="185" y="194" width="20" height="21" rx="3" fill="#f2f2ed"/><path d="M191 200h4" stroke="#aeb2b9" stroke-width="1.4"/></g><g><rect x="208" y="196" width="20" height="22" rx="3" fill="#a2a9b5"/><rect x="208" y="194" width="20" height="21" rx="3" fill="#f2f2ed"/><path d="M214 200h4" stroke="#aeb2b9" stroke-width="1.4"/></g><g><rect x="231" y="196" width="20" height="22" rx="3" fill="#a2a9b5"/><rect x="231" y="194" width="20" height="21" rx="3" fill="#f2f2ed"/><path d="M237 200h4" stroke="#aeb2b9" stroke-width="1.4"/></g><g><rect x="254" y="196" width="20" height="22" rx="3" fill="#a2a9b5"/><rect x="254" y="194" width="20" height="21" rx="3" fill="#f2f2ed"/><path d="M260 200h4" stroke="#aeb2b9" stroke-width="1.4"/></g><g><rect x="277" y="196" width="20" height="22" rx="3" fill="#a2a9b5"/><rect x="277" y="194" width="20" height="21" rx="3" fill="#f2f2ed"/><path d="M283 200h4" stroke="#aeb2b9" stroke-width="1.4"/></g><g><rect x="300" y="196" width="20" height="22" rx="3" fill="#a2a9b5"/><rect x="300" y="194" width="20" height="21" rx="3" fill="#8393b1"/><path d="M306 200h4" stroke="#d8e2f1" stroke-width="1.4"/></g><g><rect x="323" y="196" width="20" height="22" rx="3" fill="#a2a9b5"/><rect x="323" y="194" width="20" height="21" rx="3" fill="#8393b1"/><path d="M329 200h4" stroke="#d8e2f1" stroke-width="1.4"/></g><g><rect x="47" y="221" width="20" height="22" rx="3" fill="#a2a9b5"/><rect x="47" y="219" width="20" height="21" rx="3" fill="#f2f2ed"/><path d="M53 225h4" stroke="#aeb2b9" stroke-width="1.4"/></g><g><rect x="70" y="221" width="20" height="22" rx="3" fill="#a2a9b5"/><rect x="70" y="219" width="20" height="21" rx="3" fill="#f2f2ed"/><path d="M76 225h4" stroke="#aeb2b9" stroke-width="1.4"/></g><g><rect x="93" y="221" width="159" height="22" rx="3" fill="#a2a9b5"/><rect x="93" y="219" width="159" height="21" rx="3" fill="#f2f2ed"/></g><g><rect x="254" y="221" width="20" height="22" rx="3" fill="#a2a9b5"/><rect x="254" y="219" width="20" height="21" rx="3" fill="#f2f2ed"/><path d="M260 225h4" stroke="#aeb2b9" stroke-width="1.4"/></g><g><rect x="277" y="221" width="20" height="22" rx="3" fill="#a2a9b5"/><rect x="277" y="219" width="20" height="21" rx="3" fill="#f2f2ed"/><path d="M283 225h4" stroke="#aeb2b9" stroke-width="1.4"/></g><g><rect x="300" y="221" width="20" height="22" rx="3" fill="#a2a9b5"/><rect x="300" y="219" width="20" height="21" rx="3" fill="#8393b1"/><path d="M306 225h4" stroke="#d8e2f1" stroke-width="1.4"/></g><g><rect x="323" y="221" width="20" height="22" rx="3" fill="#a2a9b5"/><rect x="323" y="219" width="20" height="21" rx="3" fill="#8393b1"/><path d="M329 225h4" stroke="#d8e2f1" stroke-width="1.4"/></g><circle cx="342" cy="226" r="2" fill="#799982"/></g></svg>